<?xml version="1.0" standalone="no"?>
<!DOCTYPE svg PUBLIC "-//W3C//DTD SVG 20010904//EN"
 "http://www.w3.org/TR/2001/REC-SVG-20010904/DTD/svg10.dtd">
<svg version="1.0" xmlns="http://www.w3.org/2000/svg"
 width="122.000000pt" height="122.000000pt" viewBox="0 0 122.000000 122.000000"
 preserveAspectRatio="xMidYMid meet">
<metadata>
Created by potrace 1.11, written by Peter Selinger 2001-2013
</metadata>
<g transform="translate(0.000000,122.000000) scale(0.100000,-0.100000)"
fill="#000000" stroke="none">
<path d="M555 1137 c-34 -29 -44 -92 -22 -137 15 -30 15 -31 -6 -40 -150 -60
-147 -59 -147 -42 -1 48 -63 102 -117 102 -36 0 -73 -38 -73 -74 0 -36 38 -86
80 -104 l39 -17 -31 -75 c-17 -41 -32 -76 -32 -77 -1 -1 -20 4 -43 12 -64 22
-126 4 -143 -41 -15 -39 -12 -53 19 -85 34 -33 87 -39 134 -14 31 16 23 26 71
-90 l24 -59 -37 -13 c-20 -7 -37 -13 -38 -13 -1 0 -11 -15 -22 -34 -26 -41
-27 -77 -3 -105 42 -51 127 -26 160 48 l18 38 74 -29 c41 -16 76 -31 77 -32 1
-1 -4 -19 -11 -41 -41 -118 75 -210 139 -111 17 25 17 82 1 131 -6 17 3 24 71
52 l78 31 7 -27 c4 -16 20 -40 34 -54 89 -89 208 11 125 105 -17 19 -44 39
-60 44 l-30 9 31 70 c16 39 33 73 37 77 3 4 24 1 45 -6 107 -37 195 61 115
128 -35 30 -88 34 -131 12 l-26 -14 -31 74 c-17 40 -31 77 -31 81 0 5 19 16
40 26 92 43 92 167 0 175 -37 3 -89 -33 -109 -77 l-17 -39 -65 29 c-35 15 -70
29 -78 29 -9 0 -11 6 -6 18 22 52 26 85 15 117 -21 64 -78 83 -125 42z m70
-44 c14 -32 14 -46 -2 -77 l-16 -30 -18 23 c-11 13 -19 35 -19 50 0 45 40 69
55 34z m-322 -137 c10 -8 22 -28 27 -45 8 -27 6 -31 -11 -31 -11 0 -29 5 -40
11 -22 11 -43 55 -33 70 8 13 36 11 57 -5z m655 -13 c4 -28 -31 -63 -63 -63
-34 0 -33 32 0 66 30 30 59 28 63 -3z m-233 -57 l110 -46 46 -114 47 -114 -44
-108 c-25 -60 -50 -114 -57 -120 -16 -16 -205 -94 -226 -94 -15 0 -116 39
-199 76 -18 9 -37 25 -42 37 -5 12 -27 63 -48 114 l-39 91 44 109 c25 59 49
113 54 119 5 6 53 28 106 49 54 22 102 43 108 47 5 5 14 7 20 4 5 -2 60 -24
120 -50z m-534 -252 c30 -15 30 -16 13 -35 -20 -22 -62 -25 -88 -6 -20 15 -13
44 12 50 29 8 32 7 63 -9z m897 -6 c18 -18 14 -36 -10 -44 -32 -11 -40 -11
-65 0 -42 17 -20 56 32 56 17 0 36 -5 43 -12z m-758 -305 c0 -26 -21 -54 -47
-64 -32 -12 -48 1 -40 33 11 43 87 71 87 31z m604 -4 c31 -24 32 -62 3 -67
-25 -5 -67 36 -67 65 0 30 28 31 64 2z m-301 -163 c-6 -31 -25 -48 -46 -41
-22 9 -26 48 -10 87 l14 33 23 -27 c16 -18 22 -34 19 -52z"/>
</g>
</svg>
